<svg width="18" height="19" viewBox="0 0 18 19" fill="none" xmlns="http://www.w3.org/2000/svg">
<path d="M16.25 8.00169C17.2165 8.00169 18 8.78519 18 9.75169V16.2517C18 17.2182 17.2165 18.0017 16.25 18.0017H11.75C10.7835 18.0017 9.99999 17.2182 9.99999 16.2517V9.75169C9.99999 8.78519 10.7835 8.00169 11.75 8.00169H16.25ZM6.26819 12.0141C7.23469 12.0141 8.01819 12.7976 8.01819 13.7641V16.2517C8.01819 17.2182 7.23469 18.0017 6.26819 18.0017H1.75378C0.787286 18.0017 0.00378418 17.2182 0.00378418 16.2517V13.7641C0.00378418 12.7976 0.787286 12.0141 1.75378 12.0141H6.26819ZM16.25 9.50169H11.75C11.6119 9.50169 11.5 9.61361 11.5 9.75169V16.2517C11.5 16.3898 11.6119 16.5017 11.75 16.5017H16.25C16.3881 16.5017 16.5 16.3898 16.5 16.2517V9.75169C16.5 9.61361 16.3881 9.50169 16.25 9.50169ZM6.26819 13.5141H1.75378C1.61571 13.5141 1.50378 13.626 1.50378 13.7641V16.2517C1.50378 16.3898 1.61571 16.5017 1.75378 16.5017H6.26819C6.40626 16.5017 6.51819 16.3898 6.51819 16.2517V13.7641C6.51819 13.626 6.40626 13.5141 6.26819 13.5141ZM6.25378 0C7.22028 0 8.00378 0.783502 8.00378 1.75V8.25C8.00378 9.16817 7.29667 9.92119 6.39731 9.9942L6.25378 10H1.75378C0.787286 10 0.00378418 9.2165 0.00378418 8.25V1.75C0.00378418 0.783502 0.787286 0 1.75378 0H6.25378ZM6.25378 1.5H1.75378C1.61571 1.5 1.50378 1.61193 1.50378 1.75V8.25C1.50378 8.38807 1.61571 8.5 1.75378 8.5H6.25378L6.31111 8.4934C6.42155 8.46749 6.50378 8.36835 6.50378 8.25V1.75C6.50378 1.61193 6.39185 1.5 6.25378 1.5ZM16.25 0C17.2165 0 18 0.783502 18 1.75V4.25C18 5.2165 17.2165 6 16.25 6H11.75C10.7835 6 9.99999 5.2165 9.99999 4.25V1.75C9.99999 0.783502 10.7835 0 11.75 0H16.25ZM11.75 1.5C11.6119 1.5 11.5 1.61193 11.5 1.75V4.25C11.5 4.38807 11.6119 4.5 11.75 4.5H16.25C16.3881 4.5 16.5 4.38807 16.5 4.25V1.75C16.5 1.61193 16.3881 1.5 16.25 1.5H11.75Z" fill="#FAFAFA"/>
</svg>
